<svg width="48" height="47" viewBox="0 0 48 47" fill="none" xmlns="http://www.w3.org/2000/svg">
<path d="M24 7C26.1217 7 28.1566 7.82529 29.6569 9.29433C31.1571 10.7634 32 12.7558 32 14.8333C32 16.9109 31.1571 18.9033 29.6569 20.3723C28.1566 21.8414 26.1217 22.6667 24 22.6667C21.8783 22.6667 19.8434 21.8414 18.3431 20.3723C16.8429 18.9033 16 16.9109 16 14.8333C16 12.7558 16.8429 10.7634 18.3431 9.29433C19.8434 7.82529 21.8783 7 24 7ZM24 10.9167C22.9391 10.9167 21.9217 11.3293 21.1716 12.0638C20.4214 12.7983 20 13.7946 20 14.8333C20 15.8721 20.4214 16.8683 21.1716 17.6028C21.9217 18.3374 22.9391 18.75 24 18.75C25.0609 18.75 26.0783 18.3374 26.8284 17.6028C27.5786 16.8683 28 15.8721 28 14.8333C28 13.7946 27.5786 12.7983 26.8284 12.0638C26.0783 11.3293 25.0609 10.9167 24 10.9167ZM24 24.625C29.34 24.625 40 27.2296 40 32.4583V38.3333H8V32.4583C8 27.2296 18.66 24.625 24 24.625ZM24 28.3458C18.06 28.3458 11.8 31.205 11.8 32.4583V34.6125H36.2V32.4583C36.2 31.205 29.94 28.3458 24 28.3458Z" fill="#F2994A"/>
</svg>
